<mxfile host="app.diagrams.net" agent="Mozilla/5.0 (Windows NT 10.0; Win64; x64) AppleWebKit/537.36 (KHTML, like Gecko) Chrome/130.0.0.0 Safari/537.36" version="25.0.3">
  <diagram name="Trang-1" id="J9AZnkohg5xKJPqaUdoi">
    <mxGraphModel dx="1006" dy="531" grid="1" gridSize="10" guides="1" tooltips="1" connect="1" arrows="1" fold="1" page="1" pageScale="1" pageWidth="827" pageHeight="1169" math="0" shadow="0">
      <root>
        <mxCell id="0" />
        <mxCell id="1" parent="0" />
        <mxCell id="fS9DcUY2S1qJ4PNe0iJw-3" style="edgeStyle=orthogonalEdgeStyle;rounded=0;orthogonalLoop=1;jettySize=auto;html=1;exitX=0.5;exitY=1;exitDx=0;exitDy=0;entryX=0.5;entryY=0;entryDx=0;entryDy=0;" parent="1" source="fS9DcUY2S1qJ4PNe0iJw-1" target="aTSq0QgTJL40Yne01fox-1" edge="1">
          <mxGeometry relative="1" as="geometry">
            <mxPoint x="240" y="270" as="targetPoint" />
          </mxGeometry>
        </mxCell>
        <mxCell id="fS9DcUY2S1qJ4PNe0iJw-1" value="Start" style="rounded=0;whiteSpace=wrap;html=1;" parent="1" vertex="1">
          <mxGeometry x="180" y="110" width="120" height="60" as="geometry" />
        </mxCell>
        <mxCell id="fS9DcUY2S1qJ4PNe0iJw-5" value="" style="edgeStyle=orthogonalEdgeStyle;rounded=0;orthogonalLoop=1;jettySize=auto;html=1;exitX=0.5;exitY=1;exitDx=0;exitDy=0;" parent="1" source="aTSq0QgTJL40Yne01fox-1" target="fS9DcUY2S1qJ4PNe0iJw-4" edge="1">
          <mxGeometry relative="1" as="geometry">
            <mxPoint x="240" y="330" as="sourcePoint" />
          </mxGeometry>
        </mxCell>
        <mxCell id="fS9DcUY2S1qJ4PNe0iJw-11" style="edgeStyle=orthogonalEdgeStyle;rounded=0;orthogonalLoop=1;jettySize=auto;html=1;exitX=0.5;exitY=1;exitDx=0;exitDy=0;entryX=0.5;entryY=0;entryDx=0;entryDy=0;" parent="1" source="fS9DcUY2S1qJ4PNe0iJw-4" target="fS9DcUY2S1qJ4PNe0iJw-6" edge="1">
          <mxGeometry relative="1" as="geometry" />
        </mxCell>
        <mxCell id="fS9DcUY2S1qJ4PNe0iJw-21" value="" style="edgeStyle=orthogonalEdgeStyle;rounded=0;orthogonalLoop=1;jettySize=auto;html=1;" parent="1" source="fS9DcUY2S1qJ4PNe0iJw-4" target="fS9DcUY2S1qJ4PNe0iJw-20" edge="1">
          <mxGeometry relative="1" as="geometry" />
        </mxCell>
        <mxCell id="fS9DcUY2S1qJ4PNe0iJw-4" value="A == 0" style="rounded=0;whiteSpace=wrap;html=1;" parent="1" vertex="1">
          <mxGeometry x="180" y="440" width="120" height="60" as="geometry" />
        </mxCell>
        <mxCell id="fS9DcUY2S1qJ4PNe0iJw-12" style="edgeStyle=orthogonalEdgeStyle;rounded=0;orthogonalLoop=1;jettySize=auto;html=1;exitX=0.5;exitY=1;exitDx=0;exitDy=0;entryX=0.5;entryY=0;entryDx=0;entryDy=0;" parent="1" source="fS9DcUY2S1qJ4PNe0iJw-6" target="aTSq0QgTJL40Yne01fox-2" edge="1">
          <mxGeometry relative="1" as="geometry">
            <mxPoint x="70" y="680" as="targetPoint" />
          </mxGeometry>
        </mxCell>
        <mxCell id="fS9DcUY2S1qJ4PNe0iJw-13" style="edgeStyle=orthogonalEdgeStyle;rounded=0;orthogonalLoop=1;jettySize=auto;html=1;exitX=0.5;exitY=1;exitDx=0;exitDy=0;entryX=0.58;entryY=-0.027;entryDx=0;entryDy=0;entryPerimeter=0;" parent="1" source="fS9DcUY2S1qJ4PNe0iJw-6" target="aTSq0QgTJL40Yne01fox-3" edge="1">
          <mxGeometry relative="1" as="geometry">
            <mxPoint x="300" y="680" as="targetPoint" />
          </mxGeometry>
        </mxCell>
        <mxCell id="fS9DcUY2S1qJ4PNe0iJw-6" value="B == 0" style="rounded=0;whiteSpace=wrap;html=1;" parent="1" vertex="1">
          <mxGeometry x="110" y="555" width="120" height="60" as="geometry" />
        </mxCell>
        <mxCell id="fS9DcUY2S1qJ4PNe0iJw-16" style="edgeStyle=orthogonalEdgeStyle;rounded=0;orthogonalLoop=1;jettySize=auto;html=1;exitX=0.5;exitY=1;exitDx=0;exitDy=0;entryX=0;entryY=0.5;entryDx=0;entryDy=0;" parent="1" source="aTSq0QgTJL40Yne01fox-2" target="aTSq0QgTJL40Yne01fox-4" edge="1">
          <mxGeometry relative="1" as="geometry">
            <mxPoint x="70" y="740" as="sourcePoint" />
            <mxPoint x="110" y="840" as="targetPoint" />
          </mxGeometry>
        </mxCell>
        <mxCell id="fS9DcUY2S1qJ4PNe0iJw-17" style="edgeStyle=orthogonalEdgeStyle;rounded=0;orthogonalLoop=1;jettySize=auto;html=1;exitX=0.5;exitY=1;exitDx=0;exitDy=0;entryX=1;entryY=0.5;entryDx=0;entryDy=0;" parent="1" source="aTSq0QgTJL40Yne01fox-3" target="aTSq0QgTJL40Yne01fox-4" edge="1">
          <mxGeometry relative="1" as="geometry">
            <mxPoint x="300" y="740" as="sourcePoint" />
            <mxPoint x="230" y="840" as="targetPoint" />
          </mxGeometry>
        </mxCell>
        <mxCell id="fS9DcUY2S1qJ4PNe0iJw-18" style="edgeStyle=orthogonalEdgeStyle;rounded=0;orthogonalLoop=1;jettySize=auto;html=1;exitX=0.5;exitY=1;exitDx=0;exitDy=0;entryX=0.5;entryY=0;entryDx=0;entryDy=0;" parent="1" source="aTSq0QgTJL40Yne01fox-4" target="fS9DcUY2S1qJ4PNe0iJw-10" edge="1">
          <mxGeometry relative="1" as="geometry">
            <mxPoint x="170" y="870" as="sourcePoint" />
          </mxGeometry>
        </mxCell>
        <mxCell id="fS9DcUY2S1qJ4PNe0iJw-10" value="Kết Thúc" style="ellipse;whiteSpace=wrap;html=1;" parent="1" vertex="1">
          <mxGeometry x="110" y="940" width="120" height="80" as="geometry" />
        </mxCell>
        <mxCell id="fS9DcUY2S1qJ4PNe0iJw-14" value="True" style="text;html=1;align=center;verticalAlign=middle;resizable=0;points=[];autosize=1;strokeColor=none;fillColor=none;" parent="1" vertex="1">
          <mxGeometry x="25" y="618" width="50" height="30" as="geometry" />
        </mxCell>
        <mxCell id="fS9DcUY2S1qJ4PNe0iJw-15" value="False" style="text;html=1;align=center;verticalAlign=middle;resizable=0;points=[];autosize=1;strokeColor=none;fillColor=none;" parent="1" vertex="1">
          <mxGeometry x="275" y="618" width="50" height="30" as="geometry" />
        </mxCell>
        <mxCell id="fS9DcUY2S1qJ4PNe0iJw-19" value="True" style="text;html=1;align=center;verticalAlign=middle;resizable=0;points=[];autosize=1;strokeColor=none;fillColor=none;" parent="1" vertex="1">
          <mxGeometry x="130" y="510" width="50" height="30" as="geometry" />
        </mxCell>
        <mxCell id="fS9DcUY2S1qJ4PNe0iJw-22" style="edgeStyle=orthogonalEdgeStyle;rounded=0;orthogonalLoop=1;jettySize=auto;html=1;exitX=1;exitY=0.5;exitDx=0;exitDy=0;entryX=1;entryY=0.5;entryDx=0;entryDy=0;" parent="1" source="aTSq0QgTJL40Yne01fox-4" target="aTSq0QgTJL40Yne01fox-4" edge="1">
          <mxGeometry relative="1" as="geometry">
            <mxPoint x="230" y="840" as="targetPoint" />
          </mxGeometry>
        </mxCell>
        <mxCell id="aTSq0QgTJL40Yne01fox-5" style="edgeStyle=orthogonalEdgeStyle;rounded=0;orthogonalLoop=1;jettySize=auto;html=1;exitX=0.5;exitY=1;exitDx=0;exitDy=0;entryX=0.75;entryY=1;entryDx=0;entryDy=0;" edge="1" parent="1" source="fS9DcUY2S1qJ4PNe0iJw-20" target="aTSq0QgTJL40Yne01fox-4">
          <mxGeometry relative="1" as="geometry" />
        </mxCell>
        <mxCell id="fS9DcUY2S1qJ4PNe0iJw-20" value="Tính X = -B/A" style="rounded=0;whiteSpace=wrap;html=1;" parent="1" vertex="1">
          <mxGeometry x="490" y="440" width="120" height="60" as="geometry" />
        </mxCell>
        <mxCell id="fS9DcUY2S1qJ4PNe0iJw-23" value="False" style="text;html=1;align=center;verticalAlign=middle;resizable=0;points=[];autosize=1;strokeColor=none;fillColor=none;" parent="1" vertex="1">
          <mxGeometry x="335" y="448" width="50" height="30" as="geometry" />
        </mxCell>
        <mxCell id="aTSq0QgTJL40Yne01fox-1" value="Nhập giá trị A và B" style="shape=parallelogram;perimeter=parallelogramPerimeter;whiteSpace=wrap;html=1;fixedSize=1;" vertex="1" parent="1">
          <mxGeometry x="180" y="270" width="120" height="60" as="geometry" />
        </mxCell>
        <mxCell id="aTSq0QgTJL40Yne01fox-2" value="Vô Số Nghiệm" style="shape=parallelogram;perimeter=parallelogramPerimeter;whiteSpace=wrap;html=1;fixedSize=1;" vertex="1" parent="1">
          <mxGeometry y="680" width="120" height="60" as="geometry" />
        </mxCell>
        <mxCell id="aTSq0QgTJL40Yne01fox-3" value="Vô Nghiệm" style="shape=parallelogram;perimeter=parallelogramPerimeter;whiteSpace=wrap;html=1;fixedSize=1;" vertex="1" parent="1">
          <mxGeometry x="230" y="680" width="120" height="60" as="geometry" />
        </mxCell>
        <mxCell id="aTSq0QgTJL40Yne01fox-4" value="Hiển thị kết quả&amp;nbsp;" style="shape=parallelogram;perimeter=parallelogramPerimeter;whiteSpace=wrap;html=1;fixedSize=1;" vertex="1" parent="1">
          <mxGeometry x="110" y="800" width="120" height="60" as="geometry" />
        </mxCell>
      </root>
    </mxGraphModel>
  </diagram>
</mxfile>
